<svg xmlns="http://www.w3.org/2000/svg" width="16" height="16" viewBox="0 0 16 16">
  <path fill="#FFF" fill-rule="evenodd" d="M3.72118,2.06838 C3.70225,1.29196 4.31631,0.647194 5.09273,0.628256 L14.1525,0.407285 C14.5373,0.397901 14.9091,0.546612 15.1812,0.818748 C15.4533,1.09088 15.602,1.46266 15.5927,1.84741 L15.3717,10.9072 C15.3527,11.6836 14.708,12.2977 13.9316,12.2788 C13.1551,12.2598 12.5411,11.6151 12.56,10.8386 L12.6953,5.29341 L2.80682,15.1819 C2.25765,15.731 1.36726,15.731 0.818084,15.1819 C0.26891,14.6327 0.26891,13.7423 0.818084,13.1931 L10.7065,3.30467 L5.1613,3.43992 C4.38489,3.45886 3.74012,2.8448 3.72118,2.06838 Z"/>
</svg>
