<svg width="24" height="24" viewBox="0 0 24 24" fill="none" xmlns="http://www.w3.org/2000/svg">
<path fill-rule="evenodd" clip-rule="evenodd" d="M15.7071 13.7071C16.0976 13.3166 16.0976 12.6834 15.7071 12.2929C15.3166 11.9024 14.6834 11.9024 14.2929 12.2929L13 13.5858V4C13 3.44772 12.5523 3 12 3C11.4477 3 11 3.44772 11 4L11 13.5858L9.70711 12.2929C9.31658 11.9024 8.68342 11.9024 8.29289 12.2929C7.90237 12.6834 7.90237 13.3166 8.29289 13.7071L11.2929 16.7071C11.6834 17.0976 12.3166 17.0976 12.7071 16.7071L15.7071 13.7071ZM21 14C21 13.4477 20.5523 13 20 13C19.4477 13 19 13.4477 19 14V19L5 19L5 14C5 13.4477 4.55229 13 4 13C3.44772 13 3 13.4477 3 14V20C3 20.5523 3.44772 21 4 21H20C20.5523 21 21 20.5523 21 20V14Z" fill="white"/>
</svg>
