<svg width="88" height="88" viewBox="0 0 88 88" fill="none" xmlns="http://www.w3.org/2000/svg">
<circle cx="44.0015" cy="57.8794" r="5.72414" stroke="white" stroke-width="4"/>
<mask id="path-2-inside-1_551_10453" fill="white">
<path d="M49.4966 71.1209C50.7277 71.1209 51.7566 70.1028 51.4062 68.9227C51.3301 68.6661 51.2405 68.4132 51.1377 68.165C50.7495 67.2278 50.1805 66.3763 49.4633 65.6591C48.746 64.9418 47.8945 64.3729 46.9574 63.9847C46.0202 63.5965 45.0158 63.3967 44.0015 63.3967C42.9871 63.3967 41.9827 63.5965 41.0456 63.9847C40.1084 64.3729 39.2569 64.9418 38.5397 65.6591C37.8224 66.3763 37.2535 67.2278 36.8653 68.165C36.7625 68.4132 36.6729 68.6661 36.5967 68.9227C36.2464 70.1028 37.2753 71.1209 38.5063 71.1209H39.4527C40.1611 71.1209 40.7129 70.5254 40.984 69.871C41.1481 69.4747 41.3887 69.1146 41.692 68.8114C41.9953 68.5081 42.3553 68.2675 42.7516 68.1033C43.1478 67.9392 43.5726 67.8547 44.0015 67.8547C44.4304 67.8547 44.8551 67.9392 45.2514 68.1033C45.6476 68.2675 46.0077 68.5081 46.311 68.8114C46.6143 69.1146 46.8549 69.4747 47.019 69.871C47.2901 70.5254 47.8419 71.1209 48.5502 71.1209H49.4966Z"/>
</mask>
<path d="M49.4966 71.1209C50.7277 71.1209 51.7566 70.1028 51.4062 68.9227C51.3301 68.6661 51.2405 68.4132 51.1377 68.165C50.7495 67.2278 50.1805 66.3763 49.4633 65.6591C48.746 64.9418 47.8945 64.3729 46.9574 63.9847C46.0202 63.5965 45.0158 63.3967 44.0015 63.3967C42.9871 63.3967 41.9827 63.5965 41.0456 63.9847C40.1084 64.3729 39.2569 64.9418 38.5397 65.6591C37.8224 66.3763 37.2535 67.2278 36.8653 68.165C36.7625 68.4132 36.6729 68.6661 36.5967 68.9227C36.2464 70.1028 37.2753 71.1209 38.5063 71.1209H39.4527C40.1611 71.1209 40.7129 70.5254 40.984 69.871C41.1481 69.4747 41.3887 69.1146 41.692 68.8114C41.9953 68.5081 42.3553 68.2675 42.7516 68.1033C43.1478 67.9392 43.5726 67.8547 44.0015 67.8547C44.4304 67.8547 44.8551 67.9392 45.2514 68.1033C45.6476 68.2675 46.0077 68.5081 46.311 68.8114C46.6143 69.1146 46.8549 69.4747 47.019 69.871C47.2901 70.5254 47.8419 71.1209 48.5502 71.1209H49.4966Z" fill="white" stroke="white" stroke-width="8" mask="url(#path-2-inside-1_551_10453)"/>
<circle cx="68.2749" cy="49.0518" r="5.72414" stroke="white" stroke-width="4"/>
<mask id="path-4-inside-2_551_10453" fill="white">
<path d="M73.7701 62.2932C75.0011 62.2932 76.03 61.2752 75.6797 60.095C75.6035 59.8385 75.5139 59.5855 75.4111 59.3373C75.0229 58.4002 74.454 57.5487 73.7367 56.8314C73.0195 56.1142 72.168 55.5452 71.2308 55.1571C70.2937 54.7689 69.2893 54.5691 68.2749 54.5691C67.2606 54.5691 66.2562 54.7689 65.319 55.1571C64.3819 55.5452 63.5304 56.1142 62.8131 56.8314C62.0959 57.5487 61.5269 58.4002 61.1387 59.3373C61.0359 59.5855 60.9463 59.8385 60.8702 60.095C60.5198 61.2752 61.5487 62.2932 62.7798 62.2932H63.7262C64.4345 62.2932 64.9863 61.6978 65.2574 61.0433C65.4215 60.6471 65.6621 60.287 65.9654 59.9837C66.2687 59.6804 66.6288 59.4398 67.025 59.2757C67.4213 59.1116 67.846 59.0271 68.2749 59.0271C68.7038 59.0271 69.1286 59.1116 69.5248 59.2757C69.9211 59.4398 70.2811 59.6804 70.5844 59.9837C70.8877 60.287 71.1283 60.6471 71.2924 61.0433C71.5635 61.6978 72.1153 62.2932 72.8237 62.2932H73.7701Z"/>
</mask>
<path d="M73.7701 62.2932C75.0011 62.2932 76.03 61.2752 75.6797 60.095C75.6035 59.8385 75.5139 59.5855 75.4111 59.3373C75.0229 58.4002 74.454 57.5487 73.7367 56.8314C73.0195 56.1142 72.168 55.5452 71.2308 55.1571C70.2937 54.7689 69.2893 54.5691 68.2749 54.5691C67.2606 54.5691 66.2562 54.7689 65.319 55.1571C64.3819 55.5452 63.5304 56.1142 62.8131 56.8314C62.0959 57.5487 61.5269 58.4002 61.1387 59.3373C61.0359 59.5855 60.9463 59.8385 60.8702 60.095C60.5198 61.2752 61.5487 62.2932 62.7798 62.2932H63.7262C64.4345 62.2932 64.9863 61.6978 65.2574 61.0433C65.4215 60.6471 65.6621 60.287 65.9654 59.9837C66.2687 59.6804 66.6288 59.4398 67.025 59.2757C67.4213 59.1116 67.846 59.0271 68.2749 59.0271C68.7038 59.0271 69.1286 59.1116 69.5248 59.2757C69.9211 59.4398 70.2811 59.6804 70.5844 59.9837C70.8877 60.287 71.1283 60.6471 71.2924 61.0433C71.5635 61.6978 72.1153 62.2932 72.8237 62.2932H73.7701Z" fill="white" stroke="white" stroke-width="8" mask="url(#path-4-inside-2_551_10453)"/>
<circle cx="19.7241" cy="49.0518" r="5.72414" stroke="white" stroke-width="4"/>
<mask id="path-6-inside-3_551_10453" fill="white">
<path d="M25.2193 62.2932C26.4503 62.2932 27.4792 61.2752 27.1289 60.095C27.0527 59.8385 26.9631 59.5855 26.8603 59.3373C26.4721 58.4002 25.9032 57.5487 25.1859 56.8314C24.4687 56.1142 23.6172 55.5452 22.68 55.1571C21.7429 54.7689 20.7385 54.5691 19.7241 54.5691C18.7098 54.5691 17.7054 54.7689 16.7682 55.1571C15.8311 55.5452 14.9796 56.1142 14.2623 56.8314C13.5451 57.5487 12.9761 58.4002 12.588 59.3373C12.4852 59.5855 12.3956 59.8385 12.3194 60.095C11.9691 61.2752 12.998 62.2932 14.229 62.2932H15.1754C15.8837 62.2932 16.4355 61.6978 16.7066 61.0433C16.8707 60.6471 17.1113 60.287 17.4146 59.9837C17.7179 59.6804 18.078 59.4398 18.4742 59.2757C18.8705 59.1116 19.2952 59.0271 19.7241 59.0271C20.1531 59.0271 20.5778 59.1116 20.974 59.2757C21.3703 59.4398 21.7304 59.6804 22.0337 59.9837C22.3369 60.287 22.5775 60.6471 22.7417 61.0433C23.0127 61.6978 23.5645 62.2932 24.2729 62.2932H25.2193Z"/>
</mask>
<path d="M25.2193 62.2932C26.4503 62.2932 27.4792 61.2752 27.1289 60.095C27.0527 59.8385 26.9631 59.5855 26.8603 59.3373C26.4721 58.4002 25.9032 57.5487 25.1859 56.8314C24.4687 56.1142 23.6172 55.5452 22.68 55.1571C21.7429 54.7689 20.7385 54.5691 19.7241 54.5691C18.7098 54.5691 17.7054 54.7689 16.7682 55.1571C15.8311 55.5452 14.9796 56.1142 14.2623 56.8314C13.5451 57.5487 12.9761 58.4002 12.588 59.3373C12.4852 59.5855 12.3956 59.8385 12.3194 60.095C11.9691 61.2752 12.998 62.2932 14.229 62.2932H15.1754C15.8837 62.2932 16.4355 61.6978 16.7066 61.0433C16.8707 60.6471 17.1113 60.287 17.4146 59.9837C17.7179 59.6804 18.078 59.4398 18.4742 59.2757C18.8705 59.1116 19.2952 59.0271 19.7241 59.0271C20.1531 59.0271 20.5778 59.1116 20.974 59.2757C21.3703 59.4398 21.7304 59.6804 22.0337 59.9837C22.3369 60.287 22.5775 60.6471 22.7417 61.0433C23.0127 61.6978 23.5645 62.2932 24.2729 62.2932H25.2193Z" fill="white" stroke="white" stroke-width="8" mask="url(#path-6-inside-3_551_10453)"/>
<path d="M25 36C25 35.1968 25 25.9705 25 19.9971C25 18.8925 25.8954 18 27 18H61C62.1046 18 63 18.8954 63 20V36" stroke="white" stroke-width="4" stroke-linecap="round"/>
<path d="M34 39L39.8449 32.3201C40.5059 31.5647 41.6243 31.4162 42.4595 31.973L45.6358 34.0905C46.429 34.6193 47.4852 34.5148 48.1594 33.8406L55 27" stroke="white" stroke-width="4" stroke-linecap="round"/>
</svg>
