<svg width="32" height="32" viewBox="0 0 32 32" fill="none" xmlns="http://www.w3.org/2000/svg">
<path fill-rule="evenodd" clip-rule="evenodd" d="M14.8906 20.3334C14.8906 20.947 15.3881 21.4445 16.0017 21.4445C16.6154 21.4445 17.1128 20.947 17.1128 20.3334V15.8889C17.1128 15.2753 16.6154 14.7778 16.0017 14.7778C15.3881 14.7778 14.8906 15.2753 14.8906 15.8889L14.8906 20.3334ZM14.8906 12.5556C14.8906 13.1692 15.3881 13.6667 16.0017 13.6667C16.6154 13.6667 17.1128 13.1692 17.1128 12.5556V12C17.1128 11.3864 16.6154 10.8889 16.0017 10.8889C15.3881 10.8889 14.8906 11.3864 14.8906 12V12.5556Z" fill="white"/>
<circle cx="16" cy="16" r="9" stroke="#EAEAEA" stroke-width="2"/>
</svg>
