<svg width="32" height="32" viewBox="0 0 32 32" fill="none" xmlns="http://www.w3.org/2000/svg">
<path fill-rule="evenodd" clip-rule="evenodd" d="M24 16C24 20.4183 20.4183 24 16 24C11.5817 24 8 20.4183 8 16C8 11.5817 11.5817 8 16 8C20.4183 8 24 11.5817 24 16ZM26 16C26 21.5228 21.5228 26 16 26C10.4772 26 6 21.5228 6 16C6 10.4772 10.4772 6 16 6C21.5228 6 26 10.4772 26 16ZM17.8182 11.9596C17.4277 11.569 16.7945 11.569 16.404 11.9596C16.0135 12.3501 16.0135 12.9832 16.404 13.3738L18.0302 15H11.5556C11.0033 15 10.5556 15.4477 10.5556 16C10.5556 16.5523 11.0033 17 11.5556 17H18.0302L16.404 18.6262C16.0135 19.0168 16.0135 19.6499 16.404 20.0404C16.7945 20.431 17.4277 20.431 17.8182 20.0404L21.1516 16.7071C21.3391 16.5196 21.4444 16.2652 21.4444 16C21.4444 15.7348 21.3391 15.4804 21.1516 15.2929L17.8182 11.9596Z" fill="white"/>
</svg>
