<svg width="32" height="32" viewBox="0 0 32 32" fill="none" xmlns="http://www.w3.org/2000/svg">
<path fill-rule="evenodd" clip-rule="evenodd" d="M6.66667 18.6667V6.66667H25.3333V18.6667H6.66667ZM4 5.33334C4 4.59696 4.59695 4 5.33333 4H26.6667C27.403 4 28 4.59695 28 5.33333V20C28 20.7364 27.403 21.3333 26.6667 21.3333H17.4884L17.8588 24.6667H21.332C22.0684 24.6667 22.6654 25.2636 22.6654 26C22.6654 26.7364 22.0684 27.3334 21.332 27.3334H10.6654C9.92899 27.3334 9.33203 26.7364 9.33203 26C9.33203 25.2636 9.92899 24.6667 10.6654 24.6667H14.1386L14.509 21.3333H5.33333C4.59695 21.3333 4 20.7364 4 20V5.33334Z" fill="white"/>
</svg>
