<svg width="24" height="24" viewBox="0 0 24 24" fill="none" xmlns="http://www.w3.org/2000/svg">
<path fill-rule="evenodd" clip-rule="evenodd" d="M5 5C5 3.89543 5.89543 3 7 3H18C19.1046 3 20 3.89543 20 5V19C20 20.1046 19.1046 21 18 21H7C5.89543 21 5 20.1046 5 19V5ZM18 5H7V19H18V5ZM9 8C9 7.44772 9.44772 7 10 7H15.5C16.0523 7 16.5 7.44772 16.5 8C16.5 8.55228 16.0523 9 15.5 9H10C9.44772 9 9 8.55228 9 8ZM9 12C9 11.4477 9.44772 11 10 11H14.5C15.0523 11 15.5 11.4477 15.5 12C15.5 12.5523 15.0523 13 14.5 13H10C9.44772 13 9 12.5523 9 12ZM9 16C9 15.4477 9.44772 15 10 15H15.5C16.0523 15 16.5 15.4477 16.5 16C16.5 16.5523 16.0523 17 15.5 17H10C9.44772 17 9 16.5523 9 16Z" fill="white"/>
</svg>
