<svg width="32" height="32" viewBox="0 0 32 32" fill="none" xmlns="http://www.w3.org/2000/svg">
<path fill-rule="evenodd" clip-rule="evenodd" d="M6.66667 6H9V9.33333C9 10.622 10.0447 11.6667 11.3333 11.6667H18.6667C19.9553 11.6667 21 10.622 21 9.33333V6H21.385C21.5875 6 21.7791 6.09206 21.9056 6.2502L25.8539 11.1856C25.9485 11.3038 26 11.4507 26 11.6021V25.3333C26 25.7015 25.7015 26 25.3333 26H6.66667C6.29848 26 6 25.7015 6 25.3333V6.66667C6 6.29848 6.29848 6 6.66667 6ZM19 9.33333V6H11V9.33333C11 9.51743 11.1492 9.66667 11.3333 9.66667H18.6667C18.8508 9.66667 19 9.51743 19 9.33333ZM6.66667 28H25.3333C26.8061 28 28 26.8061 28 25.3333V11.6021C28 10.9966 27.7939 10.4091 27.4157 9.93623L23.4673 5.00081C22.9613 4.36824 22.1951 4 21.385 4H6.66667C5.19391 4 4 5.19391 4 6.66667V25.3333C4 26.8061 5.19391 28 6.66667 28ZM18 19.3333C18 20.8061 16.8061 22 15.3333 22C13.8606 22 12.6667 20.8061 12.6667 19.3333C12.6667 17.8606 13.8606 16.6667 15.3333 16.6667C16.8061 16.6667 18 17.8606 18 19.3333ZM20 19.3333C20 21.9107 17.9107 24 15.3333 24C12.756 24 10.6667 21.9107 10.6667 19.3333C10.6667 16.756 12.756 14.6667 15.3333 14.6667C17.9107 14.6667 20 16.756 20 19.3333Z" fill="white"/>
</svg>
