<svg xmlns="http://www.w3.org/2000/svg" width="33" height="31" viewBox="0 0 33 31">
  <g fill="none" fill-rule="evenodd" transform="translate(1 1)">
    <path stroke="#FFF" stroke-width="2" d="M2.6355,13.4292 C-0.5778,10.1118 -0.7969,4.8738 1.9781,1.2945 L12.6942,12.3579 C12.7933,12.4601 12.7933,12.6259 12.6942,12.7282 L10.237,15.265 C8.6289,16.9252 6.0217,16.9252 4.4137,15.265 L2.6355,13.4292 Z"/>
    <path fill="#FFF" fill-rule="nonzero" d="M11.5771,12.6416 L12.9713,11.2023 L29.2031,27.96 C29.5881,28.3575 29.5881,29.0019 29.2031,29.3993 L29.2031,29.3993 C28.8181,29.7968 28.1939,29.7968 27.8089,29.3993 L11.5771,12.6416 Z"/>
    <line x1="19.723" x2="27.096" y1="12.356" y2="4.744" stroke="#FFF" stroke-linecap="round" stroke-width="2"/>
    <path stroke="#FFF" stroke-linecap="round" stroke-width="2" d="M19.5999 12.3981L24.561 13.6644C25.1923 13.8256 25.8593 13.6339 26.3191 13.1591L30.9999 8.3267M19.6003 12.091L18.5438 7.7137C18.3337 6.8435 18.581 5.9232 19.1953 5.289L23.6269.7138"/>
    <path fill="#FFF" fill-rule="nonzero" d="M19.7305,11.0205 L21.0297,12.3618 L4.7637,29.1548 C4.4049,29.5252 3.8233,29.5252 3.4645,29.1548 L3.4645,29.1548 C3.1057,28.7844 3.1057,28.1839 3.4645,27.8135 L19.7305,11.0205 Z"/>
  </g>
</svg>
