<svg width="88" height="88" viewBox="0 0 88 88" fill="none" xmlns="http://www.w3.org/2000/svg">
<path d="M27.0089 40.7752C21.8663 35.6326 21.4273 27.5674 25.6921 21.9259L43.3238 39.5577C43.3313 39.5651 43.3336 39.5699 43.3349 39.5731C43.3367 39.5776 43.3384 39.5844 43.3384 39.5928C43.3384 39.6012 43.3367 39.608 43.3349 39.6125C43.3341 39.6145 43.3328 39.6172 43.3302 39.6207C43.3286 39.6228 43.3266 39.6252 43.3238 39.6279L39.2057 43.7461C36.658 46.2937 32.5274 46.2937 29.9798 43.7461L27.0089 40.7752Z" stroke="white" stroke-width="4"/>
<path d="M42.2969 41.9792L45.1253 39.1508L70.5811 64.6067C71.3622 65.3877 71.3622 66.654 70.5811 67.4351C69.8001 68.2161 68.5338 68.2161 67.7527 67.4351L42.2969 41.9792Z" fill="white"/>
<path d="M55.0117 36.8213L57.7772 39.5868L30.898 66.466C30.1344 67.2297 28.8962 67.2297 28.1325 66.466C27.3688 65.7023 27.3688 64.4642 28.1325 63.7005L55.0117 36.8213Z" fill="white"/>
<path d="M56.0337 39.2908L53.5739 31.9113C53.0829 30.4383 53.4663 28.8143 54.5642 27.7163L61.831 20.4495" stroke="white" stroke-width="4" stroke-linecap="round"/>
<path d="M55.3061 38.5664L63.2865 41.2265C64.3913 41.5948 65.6093 41.3072 66.4327 40.4838L74.1474 32.7691" stroke="white" stroke-width="4" stroke-linecap="round"/>
<path d="M55.3086 39.2908L67.6279 26.9715" stroke="white" stroke-width="4" stroke-linecap="round"/>
</svg>
