<svg width="31" height="31" viewBox="0 0 31 31" fill="none" xmlns="http://www.w3.org/2000/svg">
<g clip-path="url(#clip0_551_10903)">
<path d="M16 2C8.31042 2 2 8.31042 2 16C2 22.5619 6.60443 28.5226 12.7188 30V25.3682C12.1129 25.5009 11.5554 25.5047 10.9386 25.3229C10.1113 25.0788 9.439 24.5276 8.93997 23.6872C8.62189 23.1506 8.05814 22.5687 7.47003 22.6114L7.32584 20.9772C8.59753 20.8683 9.69769 21.752 10.3507 22.8492C10.6408 23.3371 10.9747 23.6231 11.4033 23.7496C11.8175 23.8716 12.2622 23.813 12.7805 23.63C12.9106 22.5924 13.3859 22.204 13.745 21.6572V21.6563C10.0984 21.1124 8.64517 19.1779 8.06839 17.6509C7.30405 15.6234 7.7142 13.0905 9.0658 11.4898C9.09207 11.4586 9.1395 11.377 9.12112 11.3199C8.5014 9.44797 9.25656 7.89941 9.28433 7.73514C9.99954 7.94662 10.1158 7.52237 12.3911 8.90472L12.7843 9.14099C12.9488 9.23904 12.8971 9.18307 13.0616 9.17068C14.0116 8.91263 15.0131 8.77014 15.9998 8.75732C16.994 8.77014 17.989 8.91263 18.9783 9.18115L19.1057 9.19397C19.0945 9.19226 19.1403 9.18585 19.2169 9.14014C22.0592 7.41855 21.9571 7.98123 22.7193 7.73343C22.7469 7.89792 23.492 9.47168 22.8789 11.3199C22.7962 11.5746 25.343 13.9067 23.9314 17.6502C23.3546 19.1779 21.9016 21.1124 18.255 21.6563V21.6572C18.7224 22.3696 19.284 22.7486 19.281 24.2183V30C25.3956 28.5226 29.9998 22.5619 29.9998 16C30 8.31042 23.6896 2 16 2V2Z" fill="white"/>
</g>
<defs>
<clipPath id="clip0_551_10903">
<rect width="28" height="28" fill="white" transform="translate(2 2)"/>
</clipPath>
</defs>
</svg>
