<svg width="31" height="31" viewBox="0 0 31 31" fill="none" xmlns="http://www.w3.org/2000/svg">
<path d="M6.43554 9.29613C7.99639 9.29613 9.26171 8.03081 9.26171 6.46997C9.26171 4.90912 7.99639 3.6438 6.43554 3.6438C4.87469 3.6438 3.60938 4.90912 3.60938 6.46997C3.60938 8.03081 4.87469 9.29613 6.43554 9.29613Z" fill="white"/>
<path d="M11.9295 11.4378V27.1173H16.7978V19.3635C16.7978 17.3175 17.1827 15.336 19.7195 15.336C22.2215 15.336 22.2525 17.6752 22.2525 19.4926V27.1186H27.1234V18.52C27.1234 14.2963 26.2141 11.0503 21.2773 11.0503C18.9071 11.0503 17.3183 12.351 16.6686 13.582H16.6028V11.4378H11.9295ZM3.99609 11.4378H8.87213V27.1173H3.99609V11.4378Z" fill="white"/>
</svg>
