<svg xmlns="http://www.w3.org/2000/svg" width="33" height="32" viewBox="0 0 33 32">
  <path fill="none" stroke="#FFF" stroke-linejoin="round" stroke-width="2" d="M9.6646,5.4308 L3.41136,3.61535 C1.8411,3.15947 0.27246,4.33747 0.27246,5.97256 L0.27246,24.4925 C0.27246,25.5846 0.99392,26.5453 2.04266,26.8497 L9.6646,29.0626 M9.6646,5.4308 L20.9351,0.88623 M9.6646,5.4308 L9.6646,29.0626 M20.9351,0.88623 L28.557,3.09904 C29.6057,3.40352 30.3272,4.36422 30.3272,5.45626 L30.3272,23.6626 C30.3272,25.3874 28.5951,26.5742 26.9866,25.9516 L20.9351,23.6091 M20.9351,0.88623 L20.9351,23.6091 M20.9351,23.6091 L9.6646,29.0626" transform="translate(1 1)"/>
</svg>
