<svg width="24" height="24" viewBox="0 0 24 24" fill="none" xmlns="http://www.w3.org/2000/svg">
<path fill-rule="evenodd" clip-rule="evenodd" d="M12 3C13.1046 3 14 3.89543 14 5V11C14 12.1046 13.1046 13 12 13C10.8954 13 10 12.1046 10 11V5C10 3.89543 10.8954 3 12 3ZM7 10C7.55228 10 8 10.4477 8 11C8 13.2091 9.79086 15 12 15C14.2091 15 16 13.2091 16 11C16 10.4477 16.4477 10 17 10C17.5523 10 18 10.4477 18 11C18 13.9742 15.836 16.4429 12.9967 16.9176C12.9989 16.9448 13 16.9723 13 17V19H15C15.5523 19 16 19.4477 16 20C16 20.5523 15.5523 21 15 21H12H9C8.44772 21 8 20.5523 8 20C8 19.4477 8.44772 19 9 19H11V17C11 16.9723 11.0011 16.9448 11.0033 16.9176C8.16399 16.4429 6 13.9742 6 11C6 10.4477 6.44772 10 7 10Z" fill="white"/>
</svg>
