<svg width="24" height="24" viewBox="0 0 24 24" fill="none" xmlns="http://www.w3.org/2000/svg">
<path fill-rule="evenodd" clip-rule="evenodd" d="M7.66667 3C6.74619 3 6 3.74619 6 4.66667V6H8H10C11.1046 6 12 6.89543 12 8V11C12 12.1046 11.1046 13 10 13H5C3.89543 13 3 12.1046 3 11V8C3 7.25972 3.4022 6.61337 4 6.26756V4.66667C4 2.64162 5.64162 1 7.66667 1C9.20704 1 10.5232 1.94954 11.0664 3.29145C11.2737 3.80339 11.0266 4.38638 10.5147 4.5936C10.0028 4.80083 9.41978 4.55382 9.21256 4.04188C8.96457 3.42924 8.36455 3 7.66667 3ZM10 8H8H5L5 11H8H10V8ZM14 6H16L18 6L18 20H10V15H8V21C8 21.5523 8.44771 22 9 22H19C19.5523 22 20 21.5523 20 21V5C20 4.44772 19.5523 4 19 4H16H14C13.4477 4 13 4.44772 13 5C13 5.55228 13.4477 6 14 6ZM14 18C14.5523 18 15 17.5523 15 17C15 16.4477 14.5523 16 14 16C13.4477 16 13 16.4477 13 17C13 17.5523 13.4477 18 14 18Z" fill="white"/>
</svg>
