<svg xmlns="http://www.w3.org/2000/svg" width="39" height="40" viewBox="0 0 39 40">
  <g fill="none" fill-rule="evenodd" transform="translate(1 1)">
    <path stroke="#FFF" stroke-linecap="round" stroke-width="2" d="M12.3964,37.4086 L11.2831,29.6157 C11.1775,28.8763 11.7512,28.2148 12.4981,28.2148 L24.1646,28.2148 C24.8941,28.2148 25.4626,28.8475 25.3849,29.5729 L24.5453,37.4086"/>
    <path stroke="#FFF" stroke-linecap="round" stroke-width="2" d="M11.4114,30.8417 L3.4948,30.8417 C2.9643,30.8417 2.4939,30.5009 2.3286,29.9969 L0.11867,23.2576 C-0.14156,22.464 0.44968,21.6479 1.2848,21.6479 L35.339,21.6479 C36.1712,21.6479 36.7621,22.4586 36.5074,23.2508 L34.3413,29.99 C34.1781,30.4976 33.706,30.8417 33.1729,30.8417 L25.5304,30.8417"/>
    <path stroke="#FFF" stroke-width="2" d="M30.7839,21.3197 L27.8638,17.1666 C26.9445,15.8591 25.4463,15.0811 23.848,15.0811 L12.7345,15.0811 C11.1533,15.0811 9.6689,15.8427 8.7468,17.1271 L5.501,21.648"/>
    <circle cx="18.307" cy="5.887" r="4.91" stroke="#FFF" stroke-width="2"/>
    <circle cx="29.352" cy="11.329" r="2.648" fill="#FFF" fill-rule="nonzero"/>
    <path stroke="#FFF" stroke-linecap="round" stroke-width="2" d="M29.2178,11.0225 C30.7501,12.3359 35.1281,16.1447 35.1281,20.8729"/>
  </g>
</svg>
