<svg width="88" height="88" viewBox="0 0 88 88" fill="none" xmlns="http://www.w3.org/2000/svg">
<path d="M34.8669 72L33.0527 59.3004C32.8806 58.0956 33.8155 57.0176 35.0326 57.0176H54.0447C55.2336 57.0176 56.16 58.0485 56.0333 59.2306L54.6652 72" stroke="white" stroke-width="4" stroke-linecap="round"/>
<path d="M33.2632 61.2984H20.362C19.4976 61.2984 18.731 60.743 18.4616 59.9216L14.8602 48.9391C14.4361 47.6459 15.3996 46.3159 16.7606 46.3159H72.2564C73.6124 46.3159 74.5754 47.6369 74.1604 48.9279L70.6303 59.9104C70.3645 60.7375 69.5951 61.2984 68.7263 61.2984H56.2719" stroke="white" stroke-width="4" stroke-linecap="round"/>
<path d="M64.8346 45.7807L60.076 39.0127C58.5779 36.882 56.1363 35.614 53.5317 35.614H35.4208C32.844 35.614 30.425 36.8552 28.9222 38.9484L23.6328 46.3158" stroke="white" stroke-width="4"/>
<circle cx="44.4988" cy="20.6316" r="7.63158" stroke="white" stroke-width="4"/>
<circle cx="62.2807" cy="28.123" r="4.2807" fill="white"/>
<path d="M62.2812 28.1228C64.7783 30.2632 71.9128 36.4702 71.9128 44.1754" stroke="white" stroke-width="3" stroke-linecap="round"/>
</svg>
