<svg width="40" height="40" viewBox="0 0 40 40" fill="none" xmlns="http://www.w3.org/2000/svg">
<path d="M12.75 19.825C14.6355 19.7597 16.4194 18.9544 17.7155 17.5834C19.0116 16.2125 19.7156 14.3862 19.675 12.5C19.7152 11.5523 19.5677 10.6059 19.241 9.71537C18.9143 8.82481 18.4149 8.00758 17.7714 7.31064C17.1279 6.6137 16.353 6.0508 15.4913 5.65426C14.6295 5.25772 13.6979 5.03538 12.75 5C11.7999 5.03216 10.8656 5.25214 10.001 5.64725C9.1364 6.04235 8.35858 6.60477 7.71245 7.30204C7.06631 7.9993 6.56465 8.81762 6.23641 9.70977C5.90817 10.6019 5.75985 11.5502 5.8 12.5C5.76608 14.3885 6.47565 16.2148 7.77573 17.585C9.07581 18.9552 10.8623 19.7597 12.75 19.825ZM12.75 8.15C13.2867 8.18164 13.8118 8.31983 14.2945 8.55651C14.7773 8.79318 15.208 9.12361 15.5618 9.52852C15.9155 9.93343 16.185 10.4047 16.3547 10.9149C16.5244 11.4251 16.5908 11.9639 16.55 12.5C16.5848 13.5562 16.2079 14.5845 15.499 15.3681C14.79 16.1517 13.8044 16.6293 12.75 16.7C11.6956 16.6293 10.71 16.1517 10.001 15.3681C9.29206 14.5845 8.91521 13.5562 8.95 12.5C8.90924 11.9639 8.97563 11.4251 9.14531 10.9149C9.31498 10.4047 9.58453 9.93343 9.93824 9.52852C10.292 9.12361 10.7227 8.79318 11.2055 8.55651C11.6882 8.31983 12.2133 8.18164 12.75 8.15ZM30.725 20.775C32.3011 20.7163 33.7901 20.0369 34.8672 18.8848C35.9443 17.7327 36.5223 16.2015 36.475 14.625C36.529 13.0443 35.9541 11.5066 34.8762 10.3491C33.7984 9.19157 32.3056 8.50864 30.725 8.45C29.1488 8.51507 27.6624 9.20081 26.5899 10.3576C25.5174 11.5144 24.9459 13.0484 25 14.625C24.9526 16.1973 25.5271 17.7249 26.5989 18.8763C27.6707 20.0276 29.1533 20.7099 30.725 20.775ZM30.725 11.575C31.4746 11.6389 32.1693 11.994 32.6601 12.5642C33.1508 13.1344 33.3985 13.8743 33.35 14.625C33.3917 15.3716 33.141 16.105 32.6509 16.6698C32.1608 17.2345 31.47 17.5861 30.725 17.65C29.9755 17.5923 29.2784 17.2434 28.7831 16.6779C28.2877 16.1125 28.0336 15.3756 28.075 14.625C28.0268 13.8703 28.2779 13.1269 28.7739 12.556C29.2699 11.9851 29.9709 11.6326 30.725 11.575ZM30.55 23.9C29.0663 23.8951 27.6015 24.2333 26.2701 24.8881C24.9388 25.543 23.7768 26.4968 22.875 27.675C21.6436 26.1856 20.0961 24.9889 18.3449 24.1717C16.5936 23.3544 14.6825 22.9371 12.75 22.95C9.4683 22.8822 6.29163 24.108 3.90606 26.3626C1.52049 28.6172 0.117467 31.7197 0 35H3.125C3.22263 32.5418 4.29029 30.2224 6.09424 28.5497C7.89818 26.8769 10.2914 25.9871 12.75 26.075C15.2061 25.9872 17.5967 26.8778 19.3966 28.5512C21.1966 30.2246 22.2588 32.544 22.35 35H25.475C25.4825 33.5533 25.2108 32.1188 24.675 30.775C25.1819 29.6452 26.0082 28.6882 27.052 28.0219C28.0959 27.3556 29.3117 27.0091 30.55 27.025C32.1598 26.964 33.7284 27.5423 34.9134 28.6336C36.0983 29.7249 36.8035 31.2406 36.875 32.85V35H40V32.85C39.928 30.4119 38.8934 28.1016 37.1225 26.4243C35.3515 24.7471 32.9884 23.8394 30.55 23.9Z" fill="white"/>
</svg>
