<svg xmlns="http://www.w3.org/2000/svg">
  <defs>

    <symbol id="icon-arrow-up-right" viewBox="0 0 32 32">
      <path
        fill-rule="evenodd"
        clip-rule="evenodd"
        d="M11.4378 9.67274C11.4176 8.84456 12.0726 8.15681 12.9007 8.13661L22.5645 7.90091C22.9749 7.8909 23.3715 8.04952 23.6618 8.3398C23.952 8.63008 24.1107 9.02664 24.1007 9.43704L23.865 19.1008C23.8448 19.929 23.157 20.584 22.3288 20.5638C21.5006 20.5436 20.8456 19.8559 20.8658 19.0277L21.0101 13.1128L10.4624 23.6604C9.87665 24.2462 8.9269 24.2462 8.34111 23.6604C7.75533 23.0747 7.75533 22.1249 8.34111 21.5391L18.8888 10.9915L12.9739 11.1357C12.1457 11.1559 11.458 10.5009 11.4378 9.67274Z"
        fill="currentColor"
      />
    </symbol>

    <symbol id="icon-drinks" viewBox="0 0 88 88">
      <path
        d="M42.5597 6.51765C42.8456 5.45071 42.2124 4.35404 41.1455 4.06816C40.0786 3.78227 38.9819 4.41544 38.696 5.48237L36.3168 14.3615C36.031 15.4285 36.6641 16.5251 37.7311 16.811C38.798 17.0969 39.8947 16.4637 40.1805 15.3968L42.5597 6.51765Z"
        fill="currentColor"
      />
      <path
        d="M57.8719 11.954C58.675 11.1956 58.7111 9.9298 57.9527 9.12676C57.1943 8.32372 55.9285 8.28756 55.1254 9.04598L46.1254 17.546C45.3224 18.3044 45.2862 19.5702 46.0447 20.3733C46.8031 21.1763 48.0689 21.2125 48.8719 20.454L57.8719 11.954Z"
        fill="currentColor"
      />
      <path
        fill-rule="evenodd"
        clip-rule="evenodd"
        d="M35.7772 21.9628C34.6726 20.0497 32.2262 19.3942 30.3131 20.4987L24.1843 24.0372C22.2711 25.1418 21.6156 27.5881 22.7202 29.5013L23.562 30.9594C23.9556 31.6411 24.578 32.1553 25.3119 32.4155L28.9531 41.8123L26.8305 45.7288C26.1678 46.9514 26.1878 48.4304 26.8831 49.6348L41.8973 75.6402C43.0019 77.5533 45.4482 78.2089 47.3614 77.1043L64.6819 67.1043C66.5951 65.9997 67.2506 63.5533 66.146 61.6402L51.1558 35.6764C50.4346 34.4273 49.0968 33.6631 47.6545 33.6766L43.9235 33.7113L37.0133 25.6253C37.1444 24.8752 37.0097 24.0976 36.6245 23.4304L35.7772 21.9628ZM26.1843 27.5013L32.3131 23.9628L33.0112 25.1721C32.8137 26.1499 33.0736 27.1723 33.7297 27.94L40.8827 36.31C41.6511 37.2091 42.778 37.7221 43.9607 37.7111L47.6917 37.6764L48.8087 39.611L31.4882 49.611L30.3472 47.6348L32.4698 43.7183C33.029 42.6865 33.1069 41.4613 32.6829 40.3671L28.9152 30.6437C28.5582 29.7224 27.8088 29.016 26.8815 28.709L26.1843 27.5013ZM33.4882 53.0751L39.9876 64.3324L57.3081 54.3324L50.8087 43.0751L33.4882 53.0751ZM59.3081 57.7965L41.9876 67.7965L45.3614 73.6402L62.6819 63.6402L59.3081 57.7965Z"
        fill="currentColor"
      />
      <path
        d="M61.3885 27.0983C62.4515 26.7981 63.0698 25.6929 62.7695 24.63C62.4692 23.567 61.3641 22.9487 60.3011 23.249L51.4549 25.7479C50.392 26.0482 49.7737 27.1533 50.0739 28.2163C50.3742 29.2792 51.4793 29.8975 52.5423 29.5973L61.3885 27.0983Z"
        fill="currentColor"
      />
    </symbol>

    <symbol id="icon-food" viewBox="0 0 88 88">
      <path
        fill-rule="evenodd"
        clip-rule="evenodd"
        d="M63.2422 21.8637C64.0232 21.0826 64.0232 19.8163 63.2422 19.0352C62.4611 18.2542 61.1948 18.2542 60.4138 19.0352L53.1469 26.3021C51.5133 27.9357 50.9429 30.3521 51.6735 32.5438L53.4404 37.8447C53.4291 37.874 53.4184 37.9038 53.4084 37.9339C53.3428 38.1306 53.3095 38.3303 53.3056 38.5272L48.9049 42.9279L45.3248 39.3478C45.2721 38.9076 45.0768 38.4813 44.739 38.1435L25.5956 19.0001C24.62 19.9757 23.793 21.0437 23.1146 22.1759C19.3407 28.4749 20.1677 36.7615 25.5956 42.1894L28.5666 45.1603C31.8953 48.489 37.2921 48.489 40.6208 45.1603L43.0506 42.7305L46.0764 45.7564L28.1323 63.7005C27.3686 64.4642 27.3686 65.7023 28.1323 66.466C28.896 67.2297 30.1342 67.2297 30.8979 66.466L48.842 48.5219L67.7552 67.4351C68.5362 68.2162 69.8026 68.2162 70.5836 67.4351C71.3647 66.6541 71.3647 65.3877 70.5836 64.6067L51.6704 45.6935L56.073 41.2909C56.2689 41.2866 56.4675 41.2533 56.6631 41.1881C56.6929 41.1782 56.7224 41.1676 56.7514 41.1564L62.6537 43.1239C64.4771 43.7317 66.4874 43.2571 67.8466 41.898L75.5613 34.1833C76.3423 33.4022 76.3423 32.1359 75.5613 31.3548C74.7802 30.5738 73.5139 30.5738 72.7328 31.3548L65.0181 39.0695C64.7304 39.3573 64.3047 39.4578 63.9186 39.3291L59.5517 37.8735L69.0396 28.3856C69.8206 27.6046 69.8206 26.3383 69.0396 25.5572C68.2585 24.7762 66.9922 24.7762 66.2111 25.5572L56.7235 35.0448L55.4682 31.2788C55.2167 30.5245 55.4131 29.6928 55.9753 29.1305L63.2422 21.8637ZM26.0619 25.1232C23.7849 29.7534 24.5723 35.5092 28.4241 39.361L31.395 42.3319C33.1616 44.0985 36.0258 44.0985 37.7924 42.3319L40.5315 39.5928L26.0619 25.1232Z"
        fill="currentColor"
      />
    </symbol>

    <symbol id="icon-github" viewBox="0 0 28 28">
      <path
        d="M14 0C6.31042 0 0 6.31042 0 14C0 20.5619 4.60443 26.5226 10.7188 28V23.3682C10.1129 23.5009 9.55536 23.5047 8.93863 23.3229C8.11127 23.0788 7.439 22.5276 6.93997 21.6872C6.62189 21.1506 6.05814 20.5687 5.47003 20.6114L5.32584 18.9772C6.59753 18.8683 7.69769 19.752 8.35074 20.8492C8.64084 21.3371 8.97473 21.6231 9.40326 21.7496C9.81747 21.8716 10.2622 21.813 10.7805 21.63C10.9106 20.5924 11.3859 20.204 11.745 19.6572V19.6563C8.09845 19.1124 6.64517 17.1779 6.06839 15.6509C5.30405 13.6234 5.7142 11.0905 7.0658 9.48978C7.09207 9.45859 7.1395 9.37698 7.12112 9.31995C6.5014 7.44797 7.25656 5.89941 7.28433 5.73514C7.99954 5.94662 8.11575 5.52237 10.3911 6.90472L10.7843 7.14099C10.9488 7.23904 10.8971 7.18307 11.0616 7.17068C12.0116 6.91263 13.0131 6.77014 13.9998 6.75732C14.994 6.77014 15.989 6.91263 16.9783 7.18115L17.1057 7.19397C17.0945 7.19226 17.1403 7.18585 17.2169 7.14014C20.0592 5.41855 19.9571 5.98123 20.7193 5.73343C20.7469 5.89792 21.492 7.47168 20.8789 9.31995C20.7962 9.57458 23.343 11.9067 21.9314 15.6502C21.3546 17.1779 19.9016 19.1124 16.255 19.6563V19.6572C16.7224 20.3696 17.284 20.7486 17.281 22.2183V28C23.3956 26.5226 27.9998 20.5619 27.9998 14C28 6.31042 21.6896 0 14 0V0Z"
        fill="currentColor"
      />
    </symbol>

    <symbol id="icon-other" viewBox="0 0 88 88">
      <path
        d="M21 23C21 21.8954 21.8954 21 23 21H37C38.1046 21 39 21.8954 39 23V38C39 39.1046 38.1046 40 37 40H23C21.8954 40 21 39.1046 21 38V23ZM21 51C21 49.8954 21.8954 49 23 49H37C38.1046 49 39 49.8954 39 51V65C39 66.1046 38.1046 67 37 67H23C21.8954 67 21 66.1046 21 65V51ZM48 23C48 21.8954 48.8954 21 50 21H65C66.1046 21 67 21.8954 67 23V38C67 39.1046 66.1046 40 65 40H50C48.8954 40 48 39.1046 48 38V23ZM48 51C48 49.8954 48.8954 49 50 49H65C66.1046 49 67 49.8954 67 51V65C67 66.1046 66.1046 67 65 67H50C48.8954 67 48 66.1046 48 65V51Z"
        fill="none"
        stroke="currentColor"
        stroke-width="4"
      />
    </symbol>

    <symbol id="react-logo" viewBox="0 0 410 369">
      <path
        d="M204.995 224.552C226.56 224.552 244.042 207.07 244.042 185.506C244.042 163.941 226.56 146.459 204.995 146.459C183.43 146.459 165.948 163.941 165.948 185.506C165.948 207.07 183.43 224.552 204.995 224.552Z"
        fill="#149ECA"
      />
      <path
        d="M409.99 184.505C409.99 153.707 381.437 126.667 335.996 108.925C343.342 60.6535 334.19 22.3878 307.492 6.98883C283.649 -6.77511 250.631 -0.0395641 214.512 25.9753C211.316 28.2692 208.143 30.7097 204.97 33.2477C201.822 30.7097 198.65 28.2692 195.477 25.9753C159.359 -0.0395641 126.34 -6.79951 102.497 6.98883C75.8237 22.3878 66.6721 60.6291 74.0422 108.852C28.5529 126.618 0 153.682 0 184.505C0 215.303 28.5528 242.342 73.9934 260.084C66.6477 308.356 75.7993 346.621 102.497 362.02C110.575 366.682 119.727 369 129.684 369C149.085 369 171.61 360.215 195.477 343.034C198.674 340.74 201.847 338.3 205.019 335.762C208.167 338.3 211.34 340.74 214.512 343.034C238.38 360.239 260.905 369 280.306 369C290.263 369 299.415 366.682 307.492 362.02C331.335 348.256 342 316.287 337.534 271.993C337.143 268.089 336.631 264.135 335.996 260.109C381.461 242.367 409.99 215.327 409.99 184.505ZM225.934 41.8136C246.238 27.1955 265.127 19.5814 280.306 19.5814C286.871 19.5814 292.728 20.9968 297.731 23.8765C315.204 33.9798 322.672 62.9475 317.327 102.433C299.756 97.0401 280.306 92.9158 259.392 90.2802C246.872 73.8074 233.597 58.9453 220.003 46.2551C221.98 44.7421 223.957 43.229 225.934 41.8136ZM112.259 23.8765C117.262 20.9968 123.119 19.5814 129.684 19.5814C144.863 19.5814 163.752 27.1711 184.056 41.8136C186.033 43.229 188.01 44.7176 189.986 46.2551C176.393 58.9453 163.142 73.783 150.622 90.2558C129.732 92.8914 110.258 97.0401 92.687 102.409C87.3424 62.9475 94.7857 33.9798 112.259 23.8765ZM19.5233 184.505C19.5233 164.322 40.9014 143.359 77.776 128.253C81.9003 146.141 88.0502 165.054 96.1768 184.456C88.0014 203.881 81.8515 222.819 77.7272 240.732C40.9014 225.626 19.5233 204.687 19.5233 184.505ZM184.056 327.196C154.966 348.134 128.805 354.675 112.259 345.133C94.7857 335.029 87.3181 306.062 92.6626 266.576C110.234 271.969 129.684 276.093 150.598 278.729C163.117 295.202 176.393 310.064 189.986 322.754C188.01 324.292 186.033 325.78 184.056 327.196ZM204.995 310.04C180.591 287.685 157.138 257.815 137.347 223.551C132.051 214.4 121.344 191.396 117 182.489C113.535 190.786 110.112 198.398 107.427 206.5C109.623 210.575 118.092 229.213 120.434 233.288C125.071 241.317 129.928 249.127 134.931 256.692C120.898 254.227 107.915 251.055 96.1035 247.321C102.815 217.011 116.213 182.064 137.347 145.458C142.545 136.453 153.838 116.346 159.5 108C150.568 109.147 143.395 108.767 135 110.5C132.56 114.453 122.777 131.645 120.434 135.721C115.749 143.823 111.454 151.925 107.427 159.978C102.546 146.581 98.8124 133.744 96.1524 121.64C125.755 112.293 162.727 106.411 204.995 106.411C215.562 106.411 237.63 106.197 247.49 106.905C242.048 99.7544 237.38 93.2819 231.694 86.888C227.082 86.7416 209.705 86.888 204.995 86.888C195.672 86.888 186.545 87.2053 177.589 87.7422C186.472 77.1752 195.672 67.5111 204.995 58.9697C229.375 81.3239 252.851 111.195 272.643 145.458C277.841 154.463 289.073 175.426 293.49 184.505C296.98 176.207 300.281 168.64 302.99 160.489C300.793 156.389 291.898 139.747 289.555 135.696C284.918 127.667 280.062 119.858 275.059 112.317C289.092 114.782 302.075 117.954 313.886 121.688C307.175 151.998 293.777 186.945 272.643 223.551C267.445 232.556 252.651 253.178 246.99 261.524C255.922 260.377 265.595 258.663 273.99 256.93C276.43 252.976 287.212 237.364 289.555 233.288C294.216 225.235 298.512 217.182 302.489 209.153C307.224 222.185 310.982 234.997 313.715 247.394C284.138 256.741 247.214 262.598 204.995 262.598C194.428 262.598 169.859 261.208 160 260.5C165.442 267.65 171.304 275.095 176.99 281.489C181.602 281.635 200.285 282.121 204.995 282.121C214.317 282.121 223.444 281.804 232.401 281.267C223.493 291.834 214.317 301.498 204.995 310.04ZM297.731 345.133C281.185 354.699 254.999 348.159 225.934 327.196C223.957 325.78 221.98 324.292 220.003 322.754C233.597 310.064 246.848 295.226 259.367 278.753C280.233 276.118 299.659 271.993 317.205 266.625C317.547 269.089 317.888 271.554 318.132 273.97C321.72 309.649 314.277 335.566 297.731 345.133ZM332.262 240.756C328.065 222.599 321.842 203.686 313.813 184.578C321.988 165.152 328.138 146.215 332.262 128.302C369.088 143.408 390.466 164.322 390.466 184.505C390.466 204.687 369.113 225.626 332.262 240.756Z"
        fill="#149ECA"
      />
    </symbol>

    <symbol id="icon-speakers" viewBox="0 0 88 88">
      <path
        fill-rule="evenodd"
        clip-rule="evenodd"
        d="M54.1318 20.6316C54.1318 25.951 49.8196 30.2632 44.5003 30.2632C39.1809 30.2632 34.8687 25.951 34.8687 20.6316C34.8687 15.3122 39.1809 11 44.5003 11C49.8196 11 54.1318 15.3122 54.1318 20.6316ZM50.1318 20.6316C50.1318 23.7418 47.6105 26.2632 44.5003 26.2632C41.39 26.2632 38.8687 23.7418 38.8687 20.6316C38.8687 17.5213 41.39 15 44.5003 15C47.6105 15 50.1318 17.5213 50.1318 20.6316Z"
        fill="currentColor"
      />
      <path
        fill-rule="evenodd"
        clip-rule="evenodd"
        d="M16.7608 44.3159C14.0388 44.3159 12.1118 46.9758 12.9599 49.5623L16.5613 60.5448C17.1001 62.1876 18.6333 63.2984 20.3622 63.2984H31.6051L32.8886 72.283C33.0448 73.3765 34.0579 74.1363 35.1514 73.9801C36.2448 73.8239 37.0046 72.8108 36.8484 71.7173L35.0342 59.0177L54.0463 59.0177L52.6781 71.7871C52.5605 72.8854 53.3554 73.8711 54.4537 73.9888C55.552 74.1065 56.5377 73.3115 56.6554 72.2132L57.6105 63.2984H68.7265C70.464 63.2984 72.0029 62.1766 72.5346 60.5224L76.0647 49.54C76.7738 47.3336 75.4708 45.0834 73.3843 44.4754C73.404 44.3785 73.4143 44.2782 73.4143 44.1754C73.4143 39.8618 71.4236 36.0681 69.2331 33.1598C68.2544 31.8605 67.2135 30.7086 66.2486 29.7352C66.451 29.2376 66.5625 28.6933 66.5625 28.123C66.5625 25.7588 64.646 23.8423 62.2818 23.8423C59.9177 23.8423 58.0011 25.7588 58.0011 28.123C58.0011 30.4872 59.9177 32.4037 62.2818 32.4037C62.9769 32.4037 63.6333 32.238 64.2137 31.944C65.0729 32.817 65.9833 33.8316 66.8368 34.9647C68.8378 37.6214 70.4143 40.7838 70.4143 44.1754C70.4143 44.2228 70.4165 44.2697 70.4208 44.3159H66.2507L61.7132 37.8624C59.8406 35.199 56.7886 33.614 53.5328 33.614H35.422C32.201 33.614 29.1772 35.1655 27.2987 37.7819L22.6077 44.3159H16.7608ZM58.441 40.163L61.361 44.3159H27.5318L30.548 40.1148C31.6751 38.5449 33.4894 37.614 35.422 37.614H53.5328C55.4863 37.614 57.3175 38.565 58.441 40.163ZM35.0342 55.0177C32.6964 55.0177 30.8792 57.0063 31.0438 59.2984H20.3622L16.7608 48.3159H72.2565L68.7265 59.2984H58.0365C58.2004 56.9957 56.3752 55.0177 54.0463 55.0177H35.0342Z"
        fill="currentColor"
      />
    </symbol>

    <symbol id="icon-twitter" viewBox="0 0 26 22">
      <path d="M23.0846 5.82941C23.1013 6.05545 23.1013 6.28021 23.1013 6.50496C23.1013 13.3831 17.8662 21.3087 8.29884 21.3087C5.35126 21.3087 2.61293 20.455 0.308594 18.9721C0.727094 19.0199 1.13009 19.0367 1.56539 19.0367C3.90717 19.0424 6.18264 18.2593 8.02501 16.8137C6.93926 16.7941 5.88675 16.4359 5.01444 15.7891C4.14213 15.1423 3.49357 14.2393 3.1593 13.2061C3.48093 13.2539 3.80384 13.2862 4.14226 13.2862C4.60855 13.2862 5.07743 13.2216 5.51272 13.1092C4.33441 12.8713 3.27487 12.2327 2.51427 11.3018C1.75366 10.3709 1.33895 9.20537 1.34064 8.00329V7.9387C2.03426 8.32491 2.83897 8.56645 3.69147 8.59875C2.97729 8.12417 2.39169 7.48019 1.98691 6.72427C1.58212 5.96834 1.37075 5.12398 1.37164 4.2665C1.37164 3.30033 1.62868 2.41425 2.07947 1.64183C3.38681 3.24998 5.01737 4.5656 6.86553 5.50347C8.71369 6.44135 10.7382 6.98057 12.8081 7.08621C12.728 6.69871 12.6789 6.297 12.6789 5.894C12.6785 5.21065 12.8129 4.53395 13.0742 3.90256C13.3356 3.27117 13.7188 2.69748 14.202 2.21428C14.6852 1.73108 15.2589 1.34786 15.8903 1.08651C16.5217 0.825167 17.1984 0.690823 17.8817 0.691163C19.3801 0.691163 20.7324 1.31891 21.6831 2.33416C22.8479 2.10892 23.9649 1.68371 24.9846 1.07737C24.5963 2.27968 23.783 3.29917 22.6971 3.94487C23.7301 3.82704 24.7397 3.55537 25.6924 3.13887C24.9809 4.17621 24.0992 5.08586 23.0846 5.82941Z"
        fill="currentColor"
      />
    </symbol>

    <symbol id="icon-venue" viewBox="0 0 88 88">
      <path
        d="M34.8916 31.406L24.7012 28.4475C22.1422 27.7045 19.5859 29.6242 19.5859 32.2888V62.4695C19.5859 64.2491 20.7617 65.8147 22.4707 66.3109L34.8916 69.917M34.8916 31.406L53.2584 24M34.8916 31.406V69.917M53.2584 24L65.6793 27.6061C67.3883 28.1022 68.564 29.6678 68.564 31.4475V61.117C68.564 63.9278 65.7413 65.8619 63.1201 64.8472L53.2584 61.0298M53.2584 24V61.0298M53.2584 61.0298L34.8916 69.917"
        fill="none"
        stroke="currentColor"
        stroke-width="4"
        stroke-linejoin="round"
      />
    </symbol>

    <symbol id="icon-workshops" viewBox="0 0 88 88">
      <path
        fill-rule="evenodd"
        clip-rule="evenodd"
        d="M27 20V36C27 37.1046 26.1046 38 25 38C23.8954 38 23 37.1046 23 36V19.9971C23 17.7841 24.7947 16 27 16H61C63.2091 16 65 17.7909 65 20V36C65 37.1046 64.1046 38 63 38C61.8954 38 61 37.1046 61 36V20H27ZM26.9986 19.9996L26.9967 20.0001C26.9962 20.0002 26.9969 19.9996 26.9986 19.9996C26.9981 20.0005 26.9977 20.0004 26.9986 19.9996Z"
        fill="currentColor"
      />
      <path
        fill-rule="evenodd"
        clip-rule="evenodd"
        d="M23.7038 55.6731C25.9475 54.3217 27.4483 51.862 27.4483 49.0518C27.4483 44.7859 23.9901 41.3276 19.7241 41.3276C15.4582 41.3276 12 44.7859 12 49.0518C12 51.862 13.5007 54.3217 15.7445 55.6731C15.2063 55.9967 14.7084 56.3853 14.2623 56.8314C13.5451 57.5486 12.9761 58.4001 12.588 59.3373C12.4852 59.5855 12.3956 59.8384 12.3194 60.095C11.9691 61.2751 12.998 62.2932 14.229 62.2932H15.1754C15.8837 62.2932 16.4355 61.6977 16.7066 61.0433C16.8707 60.647 17.1113 60.2869 17.4146 59.9836C17.7179 59.6803 18.078 59.4398 18.4742 59.2756C18.8705 59.1115 19.2952 59.027 19.7241 59.027C20.1531 59.027 20.5778 59.1115 20.974 59.2756C21.3703 59.4398 21.7304 59.6803 22.0337 59.9836C22.3369 60.2869 22.5775 60.647 22.7417 61.0433C23.0127 61.6977 23.5645 62.2932 24.2729 62.2932H25.2193C26.4503 62.2932 27.4792 61.2751 27.1289 60.095C27.0527 59.8384 26.9631 59.5855 26.8603 59.3373C26.4721 58.4001 25.9032 57.5486 25.1859 56.8314C24.7399 56.3853 24.242 55.9967 23.7038 55.6731ZM19.7241 52.7759C21.7809 52.7759 23.4483 51.1086 23.4483 49.0518C23.4483 46.995 21.7809 45.3276 19.7241 45.3276C17.6674 45.3276 16 46.995 16 49.0518C16 51.1086 17.6674 52.7759 19.7241 52.7759Z"
        fill="currentColor"
      />
      <path
        fill-rule="evenodd"
        clip-rule="evenodd"
        d="M72.2546 55.6731C74.4983 54.3217 75.9991 51.862 75.9991 49.0518C75.9991 44.7859 72.5408 41.3276 68.2749 41.3276C64.009 41.3276 60.5508 44.7859 60.5508 49.0518C60.5508 51.862 62.0515 54.3217 64.2953 55.6731C63.7571 55.9967 63.2592 56.3853 62.8131 56.8314C62.0959 57.5486 61.5269 58.4001 61.1387 59.3373C61.0359 59.5855 60.9463 59.8384 60.8702 60.095C60.5198 61.2751 61.5487 62.2932 62.7798 62.2932H63.7262C64.4345 62.2932 64.9863 61.6977 65.2574 61.0433C65.4215 60.647 65.6621 60.2869 65.9654 59.9836C66.2687 59.6803 66.6287 59.4398 67.025 59.2756C67.4213 59.1115 67.846 59.027 68.2749 59.027C68.7038 59.027 69.1286 59.1115 69.5248 59.2756C69.9211 59.4398 70.2811 59.6803 70.5844 59.9836C70.8877 60.2869 71.1283 60.647 71.2924 61.0433C71.5635 61.6977 72.1153 62.2932 72.8237 62.2932H73.7701C75.0011 62.2932 76.03 61.2751 75.6797 60.095C75.6035 59.8384 75.5139 59.5855 75.4111 59.3373C75.0229 58.4001 74.454 57.5486 73.7367 56.8314C73.2907 56.3853 72.7927 55.9967 72.2546 55.6731ZM68.2749 52.7759C70.3317 52.7759 71.9991 51.1086 71.9991 49.0518C71.9991 46.995 70.3317 45.3276 68.2749 45.3276C66.2181 45.3276 64.5508 46.995 64.5508 49.0518C64.5508 51.1086 66.2181 52.7759 68.2749 52.7759Z"
        fill="currentColor"
      />
      <path
        fill-rule="evenodd"
        clip-rule="evenodd"
        d="M47.9811 64.5008C50.2249 63.1493 51.7256 60.6896 51.7256 57.8794C51.7256 53.6135 48.2674 50.1553 44.0015 50.1553C39.7356 50.1553 36.2773 53.6135 36.2773 57.8794C36.2773 60.6896 37.7781 63.1493 40.0218 64.5008C39.4837 64.8243 38.9857 65.213 38.5397 65.659C37.8224 66.3763 37.2535 67.2278 36.8653 68.1649C36.7625 68.4131 36.6729 68.666 36.5967 68.9226C36.2464 70.1027 37.2753 71.1208 38.5063 71.1208H39.4527C40.1611 71.1208 40.7129 70.5253 40.984 69.8709C41.1481 69.4746 41.3887 69.1146 41.692 68.8113C41.9953 68.508 42.3553 68.2674 42.7516 68.1033C43.1478 67.9391 43.5726 67.8546 44.0015 67.8546C44.4304 67.8546 44.8551 67.9391 45.2514 68.1033C45.6477 68.2674 46.0077 68.508 46.311 68.8113C46.6143 69.1146 46.8549 69.4746 47.019 69.8709C47.2901 70.5253 47.8419 71.1208 48.5502 71.1208H49.4966C50.7277 71.1208 51.7566 70.1027 51.4062 68.9226C51.3301 68.666 51.2405 68.4131 51.1377 68.1649C50.7495 67.2278 50.1805 66.3763 49.4633 65.659C49.0172 65.213 48.5193 64.8243 47.9811 64.5008ZM47.7256 57.8794C47.7256 59.9362 46.0583 61.6035 44.0015 61.6035C41.9447 61.6035 40.2773 59.9362 40.2773 57.8794C40.2773 55.8226 41.9447 54.1553 44.0015 54.1553C46.0583 54.1553 47.7256 55.8226 47.7256 57.8794Z"
        fill="currentColor"
      />
      <path
        d="M56.4142 28.4142C57.1953 27.6332 57.1953 26.3668 56.4142 25.5858C55.6332 24.8047 54.3668 24.8047 53.5858 25.5858L46.7452 32.4264L43.5689 30.3089C41.8986 29.1954 39.6617 29.4923 38.3398 31.0031L32.4948 37.683C31.7675 38.5143 31.8517 39.7778 32.683 40.5052C33.5143 41.2325 34.7778 41.1483 35.5052 40.317L41.3501 33.6371L44.5264 35.7546C46.1129 36.8123 48.2253 36.6031 49.5736 35.2548L56.4142 28.4142Z"
        fill="currentColor"
      />
    </symbol>

  </defs>
</svg>
