<svg width="24" height="24" viewBox="0 0 24 24" fill="none" xmlns="http://www.w3.org/2000/svg">
<path fill-rule="evenodd" clip-rule="evenodd" d="M8.11099 5.11091C9.14244 4.07946 10.5414 3.5 12.0001 3.5C13.4588 3.5 14.8577 4.07946 15.8892 5.11091C16.9206 6.14236 17.5001 7.54131 17.5001 9C17.5001 11.4777 18.0296 12.9971 18.503 13.8649C18.741 14.3013 18.9704 14.5832 19.1245 14.7458C19.2018 14.8275 19.2609 14.8798 19.2936 14.9071C19.3075 14.9187 19.3167 14.9258 19.3205 14.9286C19.6761 15.1755 19.833 15.6241 19.7072 16.0398C19.5795 16.4615 19.1907 16.75 18.7501 16.75H5.25008C4.80941 16.75 4.42068 16.4615 4.29299 16.0398C4.16713 15.6241 4.32407 15.1755 4.67966 14.9286C4.68343 14.9258 4.69261 14.9187 4.70657 14.9071C4.73928 14.8798 4.79837 14.8275 4.87569 14.7458C5.0298 14.5832 5.25914 14.3013 5.49718 13.8649C5.97051 12.9971 6.50008 11.4777 6.50008 9C6.50008 7.54131 7.07954 6.14236 8.11099 5.11091ZM4.69385 14.919C4.69393 14.9189 4.69402 14.9189 4.6941 14.9188C4.6941 14.9188 4.69409 14.9188 4.69409 14.9188L4.69385 14.919ZM7.29207 14.75H16.7081C16.0719 13.5532 15.5001 11.7168 15.5001 9C15.5001 8.07174 15.1313 7.1815 14.475 6.52513C13.8186 5.86875 12.9283 5.5 12.0001 5.5C11.0718 5.5 10.1816 5.86875 9.5252 6.52513C8.86883 7.1815 8.50008 8.07174 8.50008 9C8.50008 11.7168 7.92826 13.5532 7.29207 14.75Z" fill="white"/>
<path fill-rule="evenodd" clip-rule="evenodd" d="M10.2015 17.8849C10.6792 17.6078 11.2912 17.7704 11.5683 18.2481C11.6122 18.3239 11.6753 18.3868 11.7512 18.4305C11.8271 18.4743 11.9132 18.4973 12.0008 18.4973C12.0884 18.4973 12.1744 18.4743 12.2503 18.4305C12.3262 18.3868 12.3893 18.3239 12.4333 18.2481C12.7104 17.7704 13.3223 17.6078 13.8001 17.8849C14.2778 18.162 14.4404 18.774 14.1633 19.2517C13.9435 19.6305 13.6281 19.945 13.2486 20.1636C12.8691 20.3822 12.4388 20.4973 12.0008 20.4973C11.5628 20.4973 11.1325 20.3822 10.753 20.1636C10.3735 19.945 10.0581 19.6305 9.83829 19.2517C9.56117 18.774 9.72379 18.162 10.2015 17.8849Z" fill="white"/>
</svg>
