<svg width="24" height="24" viewBox="0 0 24 24" fill="none" xmlns="http://www.w3.org/2000/svg">
<path fill-rule="evenodd" clip-rule="evenodd" d="M12.0001 3.5C10.5414 3.5 9.14244 4.07946 8.11099 5.11091C7.07954 6.14236 6.50008 7.54131 6.50008 9C6.50008 11.4777 5.97051 12.9971 5.49718 13.8649C5.25914 14.3013 5.0298 14.5832 4.87569 14.7458C4.79837 14.8275 4.73928 14.8798 4.70657 14.9071C4.69261 14.9187 4.68343 14.9258 4.67966 14.9286C4.32407 15.1755 4.16713 15.6241 4.29299 16.0398C4.42068 16.4615 4.80941 16.75 5.25008 16.75H18.7501C19.1907 16.75 19.5795 16.4615 19.7072 16.0398C19.833 15.6241 19.6761 15.1755 19.3205 14.9286C19.3167 14.9258 19.3075 14.9187 19.2936 14.9071C19.2609 14.8798 19.2018 14.8275 19.1245 14.7458C18.9704 14.5832 18.741 14.3013 18.503 13.8649C18.0296 12.9971 17.5001 11.4777 17.5001 9C17.5001 7.54131 16.9206 6.14236 15.8892 5.11091C14.8577 4.07946 13.4588 3.5 12.0001 3.5ZM15.5001 9C15.5001 11.7168 16.0719 13.5532 16.7081 14.75H7.29207C7.92826 13.5532 8.50008 11.7168 8.50008 9C8.50008 8.07174 8.86883 7.1815 9.5252 6.52513C10.1816 5.86875 11.0718 5.5 12.0001 5.5C12.9283 5.5 13.8186 5.86875 14.475 6.52513C15.1313 7.1815 15.5001 8.07174 15.5001 9ZM11.5683 18.2481C11.2912 17.7704 10.6792 17.6078 10.2015 17.8849C9.72379 18.162 9.56117 18.774 9.83829 19.2517C10.0581 19.6305 10.3735 19.945 10.753 20.1636C11.1325 20.3822 11.5628 20.4973 12.0008 20.4973C12.4388 20.4973 12.8691 20.3822 13.2486 20.1636C13.6281 19.945 13.9435 19.6305 14.1633 19.2517C14.4404 18.774 14.2778 18.162 13.8001 17.8849C13.3223 17.6078 12.7104 17.7704 12.4333 18.2481C12.3893 18.3239 12.3262 18.3868 12.2503 18.4305C12.1744 18.4743 12.0884 18.4973 12.0008 18.4973C11.9132 18.4973 11.8271 18.4743 11.7512 18.4305C11.6753 18.3868 11.6122 18.3239 11.5683 18.2481Z" fill="white"/>
</svg>
