<svg width="24" height="24" viewBox="0 0 24 24" fill="none" xmlns="http://www.w3.org/2000/svg">
<path fill-rule="evenodd" clip-rule="evenodd" d="M10.5857 2.00009C11.3668 1.21904 12.6331 1.21905 13.4142 2.00009L21 9.58588C22.2599 10.8458 21.3675 13.0001 19.5857 13.0001H18V16.0001C18 17.1047 17.1045 18.0001 16 18.0001H7.99995C6.89538 18.0001 5.99995 17.1047 5.99995 16.0001V13.0001H4.41417C2.63236 13.0001 1.74002 10.8458 2.99995 9.58588L10.5857 2.00009ZM12 3.41431L4.41417 11.0001H5.99995C7.10452 11.0001 7.99995 11.8955 7.99995 13.0001V16.0001H16V13.0001C16 11.8955 16.8954 11.0001 18 11.0001L19.5857 11.0001L12 3.41431Z" fill="white"/>
<rect x="6" y="20" width="12" height="2" rx="0.5" fill="white"/>
<path d="M14.9438 11.9248L12.9566 7.09603C12.8126 6.74083 12.5438 6.54883 12.1694 6.54883C11.795 6.54883 11.5262 6.74083 11.3822 7.09603L9.39499 11.9248C9.33739 12.0688 9.30859 12.2128 9.30859 12.328C9.30859 12.7792 9.65419 13.1152 10.1246 13.1152C10.4798 13.1152 10.7486 12.9136 10.9022 12.52L11.0366 12.184H13.3022L13.4366 12.52C13.5902 12.9136 13.859 13.1152 14.2142 13.1152C14.6846 13.1152 15.0302 12.7792 15.0302 12.328C15.0302 12.2128 15.0014 12.0688 14.9438 11.9248ZM12.1694 9.00643L12.8126 10.8592H11.5262L12.1694 9.00643Z" fill="white"/>
</svg>
