<svg width="32" height="32" viewBox="0 0 32 32" fill="none" xmlns="http://www.w3.org/2000/svg">
<path fill-rule="evenodd" clip-rule="evenodd" d="M25.3333 16C25.3333 21.1547 21.1547 25.3333 16 25.3333C10.8453 25.3333 6.66667 21.1547 6.66667 16C6.66667 10.8453 10.8453 6.66667 16 6.66667C21.1547 6.66667 25.3333 10.8453 25.3333 16ZM28 16C28 22.6274 22.6274 28 16 28C9.37258 28 4 22.6274 4 16C4 9.37258 9.37258 4 16 4C22.6274 4 28 9.37258 28 16ZM17.3333 9.33333C17.3333 8.59695 16.7364 8 16 8C15.2636 8 14.6667 8.59695 14.6667 9.33333V17.3333C14.6667 18.0697 15.2636 18.6667 16 18.6667H20C20.7364 18.6667 21.3333 18.0697 21.3333 17.3333C21.3333 16.597 20.7364 16 20 16H17.3333V9.33333Z" fill="white"/>
</svg>
