<svg width="88" height="88" viewBox="0 0 88 88" fill="none" xmlns="http://www.w3.org/2000/svg">
<path d="M30.7145 42.7653C30.9941 42.2494 31.033 41.6368 30.821 41.0897L27.0533 31.3664C26.8978 30.965 26.5524 30.6676 26.1323 30.5734V30.5734C25.7803 30.4945 25.4775 30.2718 25.2971 29.9594L24.4552 28.5013C23.9029 27.5447 24.2307 26.3215 25.1873 25.7692L31.3161 22.2308C32.2727 21.6785 33.4958 22.0062 34.0481 22.9628L34.8955 24.4304C35.0723 24.7368 35.1129 25.1032 35.0073 25.4408V25.4408C34.8774 25.8564 34.9703 26.3096 35.2531 26.6407L42.4061 35.0106C42.7903 35.4602 43.3538 35.7167 43.9451 35.7112L47.6761 35.6765C48.3973 35.6698 49.0662 36.0518 49.4268 36.6764L64.417 62.6402C64.9693 63.5968 64.6415 64.8199 63.685 65.3722L46.3644 75.3722C45.4079 75.9245 44.1847 75.5968 43.6324 74.6402L28.6181 48.6347C28.2705 48.0326 28.2605 47.2931 28.5918 46.6818L30.7145 42.7653Z" stroke="white" stroke-width="4"/>
<rect x="29.7578" y="50.6099" width="24" height="4" transform="rotate(-30 29.7578 50.6099)" fill="white"/>
<rect x="38.2578" y="65.3313" width="24" height="4" transform="rotate(-30 38.2578 65.3313)" fill="white"/>
<path d="M56.5 10.5L47.5 19" stroke="white" stroke-width="4" stroke-linecap="round"/>
<path d="M60.8444 25.1736L51.9982 27.6726" stroke="white" stroke-width="4" stroke-linecap="round"/>
<path d="M38.25 14.8792L40.6292 6" stroke="white" stroke-width="4" stroke-linecap="round"/>
</svg>
