<svg width="24" height="24" viewBox="0 0 24 24" fill="none" xmlns="http://www.w3.org/2000/svg">
<g clip-path="url(#clip0_599_15838)">
<path fill-rule="evenodd" clip-rule="evenodd" d="M18.0041 5.27761C16.569 3.84247 14.1822 3.37249 12.3122 5.24255L4.53407 13.0207C4.14355 13.4112 3.51033 13.4112 3.11981 13.0207C2.72929 12.6302 2.72929 11.997 3.11981 11.6065L10.898 3.82833C13.7229 1.00346 17.3881 1.83313 19.4183 3.8634C20.4398 4.88491 21.1394 6.28287 21.2223 7.80354C21.3065 9.34807 20.7494 10.9475 19.3833 12.3136L10.898 20.7989C10.4447 21.2521 9.66174 21.7983 8.73468 22.0233C7.755 22.261 6.57896 22.1367 5.59468 21.1524C4.56101 20.1188 4.4126 18.947 4.70302 17.9395C4.96892 17.017 5.57975 16.2878 5.9833 15.8842L12.5233 9.34418L13.2311 10.0506L13.9382 10.7577L7.39751 17.2984C7.09396 17.602 6.75443 18.0437 6.62477 18.4934C6.51964 18.8582 6.53047 19.2598 7.0089 19.7382C7.40523 20.1346 7.82019 20.1871 8.26312 20.0797C8.75867 19.9594 9.2299 19.6386 9.48377 19.3847L17.9691 10.8994C18.9504 9.91806 19.2772 8.86584 19.2252 7.9124C19.172 6.93511 18.7153 5.9888 18.0041 5.27761ZM13.9383 9.34347C14.3288 9.734 14.3287 10.3672 13.9382 10.7577L13.2311 10.0506L12.524 9.34347C12.9146 8.95295 13.5477 8.95295 13.9383 9.34347Z" fill="white"/>
</g>
<defs>
<clipPath id="clip0_599_15838">
<rect width="24" height="24" fill="white"/>
</clipPath>
</defs>
</svg>
