<svg width="32" height="32" viewBox="0 0 32 32" fill="none" xmlns="http://www.w3.org/2000/svg">
<g clip-path="url(#clip0_551_10734)">
<path d="M11.791 16.8679C9.93502 16.8679 8.42969 18.3733 8.42969 20.2293V28.6373C8.42969 30.4933 9.93502 31.9986 11.791 31.9986C13.647 31.9986 15.1524 30.4933 15.1524 28.6373V20.2293C15.151 18.3733 13.6457 16.8679 11.791 16.8679Z" fill="white"/>
<path d="M0.0234375 20.2295C0.0234375 22.0868 1.5301 23.5935 3.38744 23.5935C5.24477 23.5935 6.75144 22.0868 6.75144 20.2295V16.8655H3.3901C3.38877 16.8655 3.38877 16.8655 3.38744 16.8655C1.5301 16.8655 0.0234375 18.3721 0.0234375 20.2295Z" fill="white"/>
<path d="M11.7938 -0.0012207C11.7924 -0.0012207 11.7911 -0.0012207 11.7898 -0.0012207C9.93245 -0.0012207 8.42578 1.50545 8.42578 3.36278C8.42578 5.22011 9.93245 6.72678 11.7898 6.72678H15.1511V3.36278C15.1511 3.36145 15.1511 3.35878 15.1511 3.35611C15.1498 1.50145 13.6471 -0.0012207 11.7938 -0.0012207Z" fill="white"/>
<path d="M3.36791 15.1601H11.7919C13.6492 15.1601 15.1559 13.6535 15.1559 11.7961C15.1559 9.9388 13.6492 8.43213 11.7919 8.43213H3.36791C1.51057 8.43213 0.00390625 9.9388 0.00390625 11.7961C0.00390625 13.6535 1.51057 15.1601 3.36791 15.1601Z" fill="white"/>
<path d="M28.6112 8.43066C26.7566 8.43066 25.2539 9.93333 25.2539 11.788V11.7947V15.1587H28.6152C30.4726 15.1587 31.9792 13.652 31.9792 11.7947C31.9792 9.93733 30.4726 8.43066 28.6152 8.43066C28.6139 8.43066 28.6126 8.43066 28.6112 8.43066Z" fill="white"/>
<path d="M16.8555 3.36255V11.7959C16.8555 13.6519 18.3608 15.1572 20.2168 15.1572C22.0728 15.1572 23.5781 13.6519 23.5781 11.7959V3.36255C23.5781 1.50655 22.0728 0.0012207 20.2168 0.0012207C18.3608 0.0012207 16.8555 1.50655 16.8555 3.36255Z" fill="white"/>
<path d="M23.5781 28.6345C23.5781 26.7785 22.0728 25.2732 20.2168 25.2732H16.8555V28.6372C16.8568 30.4919 18.3608 31.9959 20.2168 31.9959C22.0728 31.9959 23.5781 30.4905 23.5781 28.6345Z" fill="white"/>
<path d="M28.6396 16.8652H20.2156C18.3582 16.8652 16.8516 18.3719 16.8516 20.2292C16.8516 22.0866 18.3582 23.5932 20.2156 23.5932H28.6396C30.4969 23.5932 32.0036 22.0866 32.0036 20.2292C32.0036 18.3719 30.4969 16.8652 28.6396 16.8652Z" fill="white"/>
</g>
<defs>
<clipPath id="clip0_551_10734">
<rect width="32" height="32" fill="white"/>
</clipPath>
</defs>
</svg>
