<svg width="31" height="31" viewBox="0 0 31 31" fill="none" xmlns="http://www.w3.org/2000/svg">
<path d="M25.358 10.3292C25.3748 10.5552 25.3748 10.78 25.3748 11.0047C25.3748 17.8828 20.1397 25.8085 10.5723 25.8085C7.6247 25.8085 4.88636 24.9547 2.58203 23.4719C3.00053 23.5197 3.40353 23.5365 3.83882 23.5365C6.18061 23.5421 8.45607 22.7591 10.2984 21.3135C9.2127 21.2939 8.16019 20.9356 7.28788 20.2889C6.41557 19.6421 5.767 18.7391 5.43274 17.7059C5.75436 17.7537 6.07728 17.786 6.4157 17.786C6.88199 17.786 7.35086 17.7214 7.78616 17.609C6.60785 17.3711 5.54831 16.7324 4.78771 15.8016C4.0271 14.8707 3.61238 13.7051 3.61407 12.503V12.4385C4.3077 12.8247 5.11241 13.0662 5.96491 13.0985C5.25073 12.6239 4.66513 11.9799 4.26035 11.224C3.85556 10.4681 3.64419 9.62373 3.64507 8.76625C3.64507 7.80009 3.90211 6.914 4.35291 6.14159C5.66025 7.74974 7.29081 9.06535 9.13897 10.0032C10.9871 10.9411 13.0117 11.4803 15.0815 11.586C15.0014 11.1985 14.9523 10.7968 14.9523 10.3938C14.952 9.71041 15.0863 9.0337 15.3477 8.40231C15.609 7.77092 15.9922 7.19723 16.4754 6.71404C16.9586 6.23084 17.5323 5.84762 18.1637 5.58627C18.7951 5.32492 19.4718 5.19058 20.1552 5.19092C21.6535 5.19092 23.0059 5.81867 23.9565 6.83392C25.1213 6.60867 26.2383 6.18346 27.258 5.57713C26.8698 6.77943 26.0565 7.79893 24.9705 8.44463C26.0035 8.3268 27.0132 8.05513 27.9659 7.63863C27.2543 8.67596 26.3726 9.58561 25.358 10.3292Z" fill="white"/>
</svg>
