<svg width="44" height="44" viewBox="0 0 44 44" fill="none" xmlns="http://www.w3.org/2000/svg">
<path d="M17.4335 36L16.5263 29.6502C16.4403 29.0478 16.9077 28.5088 17.5163 28.5088H27.0223C27.6168 28.5088 28.08 29.0243 28.0167 29.6153L27.3326 36" stroke="white" stroke-width="2" stroke-linecap="round"/>
<path d="M16.6316 30.6492H10.181C9.74878 30.6492 9.36548 30.3715 9.2308 29.9608L7.4301 24.4696C7.21806 23.8229 7.69981 23.158 8.38032 23.158H36.1282C36.8062 23.158 37.2877 23.8185 37.0802 24.464L35.3152 29.9552C35.1822 30.3687 34.7975 30.6492 34.3631 30.6492H28.136" stroke="white" stroke-width="2" stroke-linecap="round"/>
<path d="M32.4173 22.8902L30.038 19.5062C29.2889 18.4409 28.0682 17.8069 26.7658 17.8069H17.7104C16.422 17.8069 15.2125 18.4275 14.4611 19.4741L11.8164 23.1578" stroke="white" stroke-width="2"/>
<circle cx="22.2494" cy="10.3158" r="3.81579" stroke="white" stroke-width="2"/>
<circle cx="31.1404" cy="14.0615" r="2.14035" fill="white"/>
<path d="M31.1406 14.0615C32.3892 15.1317 35.9564 18.2352 35.9564 22.0878" stroke="white" stroke-width="1.5" stroke-linecap="round"/>
</svg>
