<svg width="48" height="48" viewBox="0 0 48 48" fill="none" xmlns="http://www.w3.org/2000/svg">
<g clip-path="url(#clip0_558_10937)">
<path d="M44.7366 18.7891L43.6426 16.8942C43.4161 16.5019 42.9147 16.3675 42.522 16.5939C42.1297 16.8204 41.9953 17.3221 42.2218 17.7145L43.3158 19.6094C43.3736 19.7093 43.3607 19.8045 43.3479 19.8523C43.3351 19.9001 43.2986 19.989 43.1987 20.0467L40.3057 21.717C40.1526 21.8051 39.9566 21.7525 39.8683 21.5998L34.0484 11.5196C33.9601 11.3666 34.0127 11.1704 34.1656 11.0821L37.0585 9.4119C37.2114 9.3238 37.4078 9.37613 37.496 9.52904L38.5305 11.321C38.7571 11.7134 39.2588 11.8478 39.651 11.6212C40.0434 11.3947 40.1778 10.893 39.9513 10.5007L38.9167 8.70875C38.3762 7.77255 37.1748 7.45042 36.2383 7.99108L33.3453 9.66135C32.9058 9.91515 32.6017 10.3145 32.4586 10.7637H24.2573C23.1059 10.7637 22.0233 11.2121 21.209 12.0263L20.3687 12.8666C19.632 12.691 18.8771 12.6007 18.118 12.6007H15.5715C15.4443 12.1093 15.1282 11.667 14.6549 11.3936L11.7619 9.72336C11.3083 9.46144 10.7797 9.39197 10.274 9.52748C9.76814 9.66299 9.34528 9.9875 9.08344 10.441L3.26357 20.5213C3.00174 20.9749 2.9321 21.5033 3.06761 22.0092C3.20312 22.5152 3.52763 22.938 3.98125 23.1998L6.87424 24.8701C7.18226 25.0479 7.51882 25.1324 7.85129 25.1324C7.97244 25.1324 8.09294 25.1207 8.21139 25.0987L10.5792 27.4666C10.543 27.6528 10.5242 27.8436 10.5242 28.0375C10.5242 28.8258 10.8312 29.5669 11.3885 30.1242C11.9222 30.6578 12.6111 30.9435 13.3112 30.9821C13.3005 31.085 13.2946 31.1889 13.2946 31.2937C13.2946 32.082 13.6016 32.823 14.159 33.3803C14.7164 33.9377 15.4574 34.2447 16.2456 34.2447C16.267 34.2447 16.2882 34.2436 16.3095 34.2431C16.309 34.2644 16.308 34.2856 16.308 34.307C16.308 35.0953 16.6149 35.8364 17.1723 36.3937C17.7297 36.9511 18.4708 37.258 19.259 37.258C19.2804 37.258 19.3015 37.2569 19.3229 37.2565C19.3224 37.2778 19.3213 37.2989 19.3213 37.3204C19.3213 38.1086 19.6283 38.8497 20.1856 39.407C20.743 39.9643 21.4841 40.2713 22.2723 40.2713C23.0605 40.2713 23.8016 39.9644 24.3589 39.407L25.5259 38.2401C25.868 37.898 26.1076 37.4918 26.2463 37.06C26.7647 37.4426 27.3807 37.6339 27.997 37.6339C28.7526 37.6338 29.5085 37.3462 30.0837 36.7709C30.4279 36.4267 30.6762 36.0124 30.8161 35.5603C31.291 35.8708 31.8456 36.0378 32.4263 36.0378C33.2145 36.0378 33.9556 35.7309 34.5129 35.1735C34.9271 34.7592 35.2027 34.2436 35.3171 33.6825C35.6134 33.7806 35.9264 33.8324 36.2476 33.8324C37.0358 33.8324 37.777 33.5254 38.3343 32.968C39.4848 31.8174 39.4848 29.9452 38.3343 28.7946L36.4197 26.88L39.9144 23.3854C39.992 23.3946 40.0702 23.3999 40.1487 23.3999C40.4812 23.3999 40.8178 23.3154 41.1257 23.1376L44.0187 21.4674C44.4723 21.2055 44.7968 20.7827 44.9324 20.2768C45.068 19.7708 44.9984 19.2427 44.7366 18.7891ZM4.80145 21.7791C4.70154 21.7214 4.66512 21.6326 4.65232 21.5847C4.63953 21.5368 4.62665 21.4417 4.6844 21.3417L10.5043 11.2613C10.5619 11.1614 10.6509 11.125 10.6987 11.1122C10.7191 11.1068 10.7481 11.1013 10.7824 11.1013C10.8286 11.1013 10.8843 11.1112 10.9416 11.1442L13.8346 12.8145C13.9874 12.9027 14.04 13.0989 13.9518 13.2518L8.13191 23.3321C8.04356 23.4849 7.84751 23.5376 7.69453 23.4493L4.80145 21.7791ZM12.1648 28.0375C12.1648 27.6874 12.3011 27.3583 12.5487 27.1108L13.2566 26.4029C13.512 26.1474 13.8476 26.0196 14.1833 26.0196C14.5188 26.0196 14.8544 26.1474 15.1099 26.4029C15.3574 26.6504 15.4938 26.9795 15.4938 27.3295C15.4938 27.6795 15.3574 28.0086 15.1099 28.2561L14.402 28.964C13.891 29.475 13.0596 29.4749 12.5487 28.964C12.3011 28.7166 12.1648 28.3875 12.1648 28.0375ZM16.2457 32.6041C15.8956 32.6041 15.5666 32.4678 15.3191 32.2203C15.0716 31.9728 14.9352 31.6437 14.9352 31.2937C14.9352 30.9437 15.0716 30.6146 15.3191 30.3671L16.486 29.2002C16.7414 28.9448 17.077 28.8171 17.4126 28.8171C17.7482 28.8171 18.0838 28.9448 18.3393 29.2002C18.5868 29.4477 18.7232 29.7768 18.7232 30.1268C18.7232 30.4768 18.5868 30.8059 18.3393 31.0534L17.1724 32.2203C16.9248 32.4678 16.5957 32.6041 16.2457 32.6041ZM19.259 35.6175C18.9089 35.6175 18.5799 35.4812 18.3324 35.2337C18.0849 34.9862 17.9486 34.6571 17.9486 34.3071C17.9486 33.9571 18.0849 33.628 18.3324 33.3804L19.4993 32.2136C19.7547 31.9581 20.0903 31.8304 20.4259 31.8304C20.7615 31.8304 21.0972 31.9581 21.3526 32.2136C21.6002 32.4611 21.7365 32.7902 21.7365 33.1402C21.7365 33.4903 21.6002 33.8194 21.3526 34.0668L20.1857 35.2337C19.9382 35.4812 19.6091 35.6175 19.259 35.6175ZM24.3659 37.0802L23.199 38.2471C22.9515 38.4946 22.6225 38.6309 22.2724 38.6309C21.9223 38.6309 21.5933 38.4946 21.3458 38.2471C21.0982 37.9996 20.9619 37.6705 20.9619 37.3205C20.9619 36.9704 21.0982 36.6414 21.3458 36.3938L22.5126 35.227C22.7681 34.9715 23.1037 34.8437 23.4393 34.8437C23.7748 34.8437 24.1105 34.9715 24.3659 35.2269C24.8769 35.7378 24.8769 36.5692 24.3659 37.0802ZM37.1744 31.8081C36.9268 32.0557 36.5978 32.192 36.2477 32.192C35.8977 32.192 35.5687 32.0557 35.3211 31.8081L27.4915 23.9784C27.1712 23.6582 26.6519 23.6581 26.3313 23.9784C26.011 24.2988 26.011 24.8182 26.3313 25.1385L33.353 32.1602C33.6006 32.4077 33.7369 32.7368 33.7369 33.0868C33.7369 33.4369 33.6006 33.766 33.353 34.0135C33.1055 34.261 32.7765 34.3973 32.4264 34.3973C32.0763 34.3973 31.7473 34.261 31.4998 34.0135L23.0622 25.5759C22.7419 25.2557 22.2225 25.2557 21.9021 25.5759C21.5818 25.8963 21.5818 26.4157 21.9021 26.736L28.9238 33.7578C29.1713 34.0052 29.3077 34.3343 29.3077 34.6844C29.3077 35.0344 29.1713 35.3635 28.9238 35.6109C28.4129 36.1219 27.5815 36.1221 27.0705 35.6109L25.5262 34.0667C25.5241 34.0645 25.5217 34.0627 25.5196 34.0607C24.9288 33.4734 24.1495 33.1889 23.3755 33.2055C23.376 33.1838 23.3771 33.1621 23.3771 33.1402C23.3771 32.352 23.0701 31.6109 22.5127 31.0535C21.9212 30.462 21.139 30.1755 20.3621 30.1921C20.3626 30.1704 20.3637 30.1487 20.3637 30.1269C20.3637 29.3386 20.0567 28.5976 19.4993 28.0402C18.8524 27.3933 17.9774 27.1102 17.1309 27.1907C17.097 26.4546 16.7944 25.7674 16.2699 25.2429C15.1193 24.0923 13.2471 24.0925 12.0964 25.2429L11.3885 25.9508C11.3877 25.9516 11.3869 25.9525 11.3861 25.9534L9.56454 24.1318L15.2748 14.2413H18.1179C18.3965 14.2413 18.6743 14.256 18.9506 14.2847L18.0129 15.2224C17.4556 15.7798 17.1486 16.5209 17.1486 17.3092C17.1486 18.0974 17.4556 18.8385 18.0129 19.3959C18.5883 19.9712 19.344 20.2588 20.0996 20.2588C20.8553 20.2588 21.6111 19.9712 22.1863 19.3959L24.4008 17.1814L37.1743 29.9549C37.6853 30.4658 37.6853 31.2972 37.1744 31.8081ZM29.2932 19.7535C30.4869 18.8896 31.2186 17.4954 31.2186 15.9808C31.2186 15.5277 30.8513 15.1605 30.3983 15.1605C29.9454 15.1605 29.578 15.5277 29.578 15.9808C29.578 17.0523 29.012 18.0297 28.109 18.5694L24.9847 15.445C24.6643 15.1247 24.1458 15.1164 23.8254 15.4367L21.0263 18.2357C20.5153 18.7467 19.684 18.7466 19.173 18.2357C18.9254 17.9883 18.7891 17.6592 18.7891 17.3092C18.7891 16.9591 18.9254 16.63 19.173 16.3825L22.3691 13.1864C22.8734 12.6821 23.544 12.4043 24.2573 12.4043H32.6649L38.4475 22.4202C38.4612 22.4439 38.4761 22.4665 38.4906 22.4894L35.2599 25.7201L29.2932 19.7535Z" fill="white"/>
<path d="M41.0859 14.928C41.3017 14.928 41.5125 14.8402 41.6659 14.6876C41.8184 14.5342 41.9063 14.3234 41.9063 14.1077C41.9063 13.8911 41.8185 13.6803 41.6659 13.5269C41.5125 13.3743 41.3017 13.2874 41.0859 13.2874C40.8694 13.2874 40.6586 13.3743 40.506 13.5269C40.3526 13.6803 40.2656 13.8911 40.2656 14.1077C40.2656 14.3234 40.3526 14.5342 40.506 14.6876C40.6586 14.8403 40.8694 14.928 41.0859 14.928Z" fill="white"/>
<path d="M39 10.5L43 17.5" stroke="white" stroke-width="1.6"/>
</g>
<defs>
<clipPath id="clip0_558_10937">
<rect width="48" height="48" fill="white"/>
</clipPath>
</defs>
</svg>
