<svg width="24" height="24" viewBox="0 0 24 24" fill="none" xmlns="http://www.w3.org/2000/svg">
<path fill-rule="evenodd" clip-rule="evenodd" d="M19 12C19 15.866 15.866 19 12 19C8.13401 19 5 15.866 5 12C5 8.13401 8.13401 5 12 5C15.866 5 19 8.13401 19 12ZM21 12C21 16.9706 16.9706 21 12 21C7.02944 21 3 16.9706 3 12C3 7.02944 7.02944 3 12 3C16.9706 3 21 7.02944 21 12ZM13 8C13 7.44772 12.5523 7 12 7C11.4477 7 11 7.44772 11 8V12C11 12.5523 11.4477 13 12 13C12.5523 13 13 12.5523 13 12V8ZM13 15C13 14.4477 12.5523 14 12 14C11.4477 14 11 14.4477 11 15V15.5C11 16.0523 11.4477 16.5 12 16.5C12.5523 16.5 13 16.0523 13 15.5V15Z" fill="white"/>
</svg>
